<svg width="38" height="38" viewBox="0 0 38 38" fill="none" xmlns="http://www.w3.org/2000/svg">
<path d="M14.0703 32.6283V17.1299C14.0703 16.2719 14.7658 15.5763 15.6239 15.5763H21.9286C22.7866 15.5763 23.4822 16.2719 23.4822 17.1299V32.6283M14.0703 32.6283L14.0725 25.9174C14.0728 25.0592 13.3772 24.3633 12.519 24.3633H6.2147C5.35669 24.3633 4.66113 25.0589 4.66113 25.9169V31.0748C4.66113 31.9328 5.35669 32.6283 6.2147 32.6283H14.0703ZM14.0703 32.6283H23.4822M23.4822 32.6283V6.21763C23.4822 5.35962 24.1778 4.66406 25.0358 4.66406H31.0718C31.9298 4.66406 32.6254 5.35962 32.6254 6.21763V31.0748C32.6254 31.9328 31.9298 32.6283 31.0718 32.6283H23.4822Z" stroke="black" stroke-width="3.10714" stroke-linecap="round" stroke-linejoin="round"/>
</svg>
