<svg width="43" height="43" viewBox="0 0 43 43" fill="none" xmlns="http://www.w3.org/2000/svg">
<path d="M19.4763 5.66984C20.1575 3.82881 22.7615 3.8288 23.4427 5.66984L26.8335 14.8332C27.0477 15.4121 27.504 15.8684 28.0828 16.0826L37.2462 19.4734C39.0873 20.1546 39.0873 22.7585 37.2462 23.4398L28.0828 26.8305C27.504 27.0447 27.0477 27.5011 26.8335 28.0799L23.4427 37.2433C22.7615 39.0843 20.1575 39.0843 19.4763 37.2433L16.0855 28.0799C15.8713 27.5011 15.415 27.0447 14.8362 26.8305L5.67277 23.4398C3.83174 22.7585 3.83173 20.1546 5.67277 19.4734L14.8362 16.0826C15.415 15.8684 15.8713 15.4121 16.0855 14.8332L19.4763 5.66984Z" stroke="black" stroke-width="3.57656" stroke-linejoin="round"/>
</svg>
