<svg width="770" height="420" viewBox="0 0 770 420" fill="none" xmlns="http://www.w3.org/2000/svg">
<path d="M471.113 390.769C466.825 396.126 462.77 401.217 458.77 406.239C464.617 407.331 472.685 409.453 480.878 410.197C489.24 410.958 497.725 410.366 506.699 410.366C507.6 411.999 507.305 413.47 504.032 414.401C483.065 420.369 462.173 421.34 441.15 414.576C438.604 413.757 435.333 413.937 432.734 414.742C413.723 420.626 395.096 419.375 376.584 412.69C376.486 407.281 379.937 408.963 382.405 409.513C394.791 412.275 406.872 410.945 418.801 407.113C419.41 406.918 419.97 406.569 421.168 405.998C419.757 405.16 418.759 404.53 417.729 403.959C399.858 394.062 385.014 380.46 371.57 365.354C343.663 333.997 316.072 302.36 288.324 270.862C250.226 227.615 212.124 184.373 173.977 141.171C164.758 130.73 155.355 120.45 145.529 109.533C145.4 110.89 145.27 111.617 145.27 112.345C145.256 179.504 145.212 246.663 145.281 313.822C145.294 326.233 149.542 336.564 162.034 341.21C166.734 342.957 172.041 343.071 177.509 344.004C178.108 345.815 178.241 347.415 174.756 347.412C148.265 347.39 121.773 347.489 95.2809 347.534C94.8026 347.534 94.324 347.338 93.8495 347.235C92.9554 344.49 93.6521 343.171 96.7613 343.19C99.7402 343.208 102.788 343.085 105.691 342.475C117.481 339.995 125.646 331.401 126.442 319.394C127.201 307.943 126.96 296.417 126.963 284.924C126.982 220.933 126.979 156.942 126.799 92.9517C126.791 90.067 125.728 86.5975 123.932 84.4C111.403 69.065 99.2652 53.313 85.6278 39.0042C67.072 19.535 44.2707 8.40304 16.5591 10.1713C11.3139 10.506 6.13641 11.9029 0.875029 12.8187C-0.511934 9.52697 -0.557253 9.42524 3.02405 7.83009C13.7712 3.04311 25.1426 0.828851 36.8117 0.160516C71.5041 -1.82653 97.8075 14.8392 120.351 38.8026C137.124 56.633 153.118 75.2014 169.331 93.5539C209.367 138.872 249.335 184.252 289.321 229.614C308.597 251.481 327.852 273.365 347.123 295.236C347.973 296.2 348.884 297.111 350.725 299.064C350.725 294.056 350.726 290.169 350.725 286.282C350.711 222.458 350.697 158.633 350.682 94.8083C350.682 94.1417 350.676 93.4752 350.672 92.8086C350.536 69.8072 341.601 60.6012 317.125 60.0061C318.653 58.2255 319.53 56.3047 320.418 56.2994C347.215 56.1401 374.014 56.1697 400.812 56.1697C401.097 56.6571 401.381 57.1444 401.666 57.6318C400.568 58.4795 399.456 60.085 398.377 60.0631C377.034 59.6299 368.955 74.341 368.927 92.3872C368.856 136.715 368.966 181.043 368.96 225.372C368.956 255.034 368.945 284.697 368.762 314.359C368.736 318.609 369.838 321.854 372.723 325.076C389.832 344.18 406.643 363.551 423.779 382.631C427.417 386.682 432.044 389.834 436.109 393.517C438.836 395.987 440.914 395.349 443.271 392.882C453.937 381.723 460.527 368.326 463.472 353.428C465.722 342.049 467.503 330.36 467.552 318.8C467.871 243.311 467.668 167.82 467.6 92.329C467.598 89.3426 467.528 86.3056 467.005 83.3788C464.162 67.4681 455.719 60.4021 439.594 60.2186C438.612 60.2074 437.63 60.2171 436.403 60.2171C436.325 58.89 436.261 57.7929 436.178 56.3878C466.176 56.3878 495.935 56.3878 526.019 56.3878C526.645 58.4967 527.062 60.2933 523.543 60.2055C504.04 59.7187 495.492 72.4578 495.461 90.1261C495.398 125.455 495.434 160.785 495.405 196.114C495.371 237.609 495.461 279.104 495.201 320.597C495.068 341.769 489.97 361.778 478.989 380.048C476.774 383.733 473.91 387.028 471.113 390.769Z" fill="#040404"/>
<path d="M650.46 57.122C663.306 58.867 675.255 62.0142 686.517 67.6711C710.073 79.5035 723.353 104.244 720.045 130.316C717.538 150.074 707.919 165.191 690.86 175.533C690.307 175.868 689.789 176.264 689.274 176.658C689.174 176.734 689.165 176.931 689.222 176.773C698.482 179.587 708.003 181.774 716.976 185.341C745.231 196.572 763.252 217.141 768.243 247.25C775.951 293.748 750.583 327.66 712.354 344.026C688.786 354.115 663.959 356.386 638.549 354.524C623.976 353.456 609.931 350.438 596.588 344.599C566.395 331.384 550.21 307.351 544.601 275.637C543.276 268.142 543.28 260.406 542.81 252.772C542.688 250.797 541.983 247.758 545.524 248.393C546.717 248.607 548.226 250.835 548.412 252.293C550.476 268.467 554.807 283.92 562.951 298.112C570.736 311.679 581.189 322.492 596.899 329.172C596.899 322.588 596.9 316.7 596.898 310.812C596.885 255.671 596.859 200.53 596.864 145.39C596.866 126.734 597.127 108.076 596.927 89.4224C596.806 78.0117 593.5 67.6975 582.109 62.7548C577.104 60.5828 571.22 60.4362 565.352 59.2957C564.108 55.5581 567.264 56.1959 569.59 56.2192C596.397 56.488 623.204 56.7993 650.46 57.122ZM721.391 312.52C732.262 299.994 737.347 285.238 738.991 268.89C742.552 233.476 723.572 203.596 689.985 192.137C675.184 187.088 659.979 184.952 644.4 185.048C643.116 185.056 641.83 184.857 640.298 184.735C640.411 182.996 640.505 181.563 640.594 180.188C662.024 178.055 677.226 167.298 684.632 149.376C688.542 139.916 689.398 130.003 688.926 119.969C687.149 82.1288 659.881 67.8052 624.831 70.257C624.831 159.476 624.831 248.699 624.831 338.773C635.9 339.212 646.722 340.37 657.476 339.92C681.841 338.899 703.88 331.702 721.391 312.52Z" fill="#040404"/>
</svg>
